<?xml version="1.0" encoding="utf-8"?>
<svg version="1.1" id="Calque_1" x="0px" y="0px" viewBox="0 417.928 1000 164.144" style="enable-background:new 0 0 1000 1000" xmlns="http://www.w3.org/2000/svg">
  <g>
    <polygon points="119.23,448.93 109.38,485.23 77.93,485.23 87.78,448.93 61.53,448.93 53.39,448.93 40.93,448.93 50.75,458.74 &#10;&#9;&#9;25.76,551.81 60.15,551.81 70,514.92 101.45,514.92 91.6,551.81 125.99,551.81 153.62,448.93 &#9;"/>
    <polygon points="137.46,551.81 171.85,551.81 192.16,484.97 157.77,484.97 &#9;"/>
    <polygon points="301.92,448.93 165.56,448.93 157.77,478.03 229.46,478.03 209.62,551.81 244.01,551.81 263.85,478.03 &#10;&#9;&#9;294.13,478.03 &#9;"/>
    <polygon points="355.71,485.08 343.36,448.93 309.41,448.93 281.78,551.81 315.44,551.81 329.1,500.81 342.92,537.4 343.51,537.4 &#10;&#9;&#9;377.02,500.81 363.35,551.81 397.59,551.81 425.23,448.93 387.45,448.93 &#9;"/>
    <polygon points="630.84,448.93 538.24,448.93 535.89,448.93 497.53,448.93 470.78,483.32 462.41,448.93 426.25,448.93 &#10;&#9;&#9;446.39,512.57 435.95,551.81 470.34,551.81 479.75,516.83 513.17,478.03 558.38,478.03 538.54,551.81 572.93,551.81 592.77,478.03 &#10;&#9;&#9;623.05,478.03 &#9;"/>
    <polygon points="652,523.59 655.09,512.42 705.35,512.42 711.96,487.58 661.7,487.58 664.49,477.15 718.43,477.15 726.07,448.93 &#10;&#9;&#9;638.33,448.93 610.7,551.81 699.18,551.81 706.67,523.59 &#9;"/>
    <path d="M772.66,448.19l-71.13,103.61H739l8.97-13.82h36.01l1.76,13.82h36.6l-15.58-103.61H772.66z M763.26,513.59l16.02-24.99 l2.79,24.99H763.26z"/>
    <polygon points="968.28,448.93 953.64,448.93 930.51,448.93 898.76,485.08 886.42,448.93 852.47,448.93 824.84,551.81 &#10;&#9;&#9;858.49,551.81 872.16,500.81 885.98,537.4 886.56,537.4 920.07,500.81 906.4,551.81 940.65,551.81 966.09,457.07 974.24,448.93 &#9;&#10;&#9;&#9;"/>
  </g>
</svg>